<svg xmlns="http://www.w3.org/2000/svg" xmlns:xlink="http://www.w3.org/1999/xlink" width="500" zoomAndPan="magnify" viewBox="0 0 375 112.499997" height="150" preserveAspectRatio="xMidYMid meet" version="1.0"><defs><g/><clipPath id="1c462d17f4"><path d="M 0.828125 0 L 374.167969 0 L 374.167969 112.003906 L 0.828125 112.003906 Z M 0.828125 0 " clip-rule="nonzero"/></clipPath><clipPath id="ba60d7a465"><path d="M 10 8 L 145.6875 8 L 145.6875 107 L 10 107 Z M 10 8 " clip-rule="nonzero"/></clipPath><clipPath id="44b99a1b5b"><rect x="0" width="204" y="0" height="71"/></clipPath><clipPath id="5b66716bba"><path d="M 165 49 L 368 49 L 368 112.003906 L 165 112.003906 Z M 165 49 " clip-rule="nonzero"/></clipPath><clipPath id="c8ee4d1219"><rect x="0" width="203" y="0" height="64"/></clipPath><clipPath id="ff296b7c18"><rect x="0" width="204" y="0" height="71"/></clipPath><clipPath id="c664f238b6"><rect x="0" width="204" y="0" height="71"/></clipPath></defs><g clip-path="url(#1c462d17f4)"><path fill="#ffffff" d="M 0.828125 0 L 374.171875 0 L 374.171875 112.003906 L 0.828125 112.003906 Z M 0.828125 0 " fill-opacity="1" fill-rule="nonzero"/><path fill="#ffffff" d="M 0.828125 0 L 374.171875 0 L 374.171875 112.003906 L 0.828125 112.003906 Z M 0.828125 0 " fill-opacity="1" fill-rule="nonzero"/></g><path fill="#fd7537" d="M 83.90625 103.570312 C 91.910156 105.039062 99.972656 106.488281 108.113281 106.507812 C 116.253906 106.523438 124.566406 105.039062 131.597656 100.941406 C 131.597656 100.941406 138.632812 96.613281 139.359375 92.039062 C 140.082031 87.460938 138.15625 86.96875 138.15625 86.96875 C 138.15625 86.96875 143.359375 82.21875 143.628906 76.5 C 144.105469 66.589844 141.742188 64.644531 141.742188 64.644531 C 141.742188 64.644531 143.4375 61.269531 142.578125 53.988281 C 141.722656 46.707031 134.800781 42.988281 134.800781 42.988281 C 134.800781 42.988281 135.8125 40.453125 131.257812 33.6875 C 126.699219 26.917969 119.054688 26.917969 119.054688 26.917969 C 118.5625 24.367188 114.5 19.808594 114.5 19.808594 C 106.359375 11.515625 94.867188 15.175781 94.867188 15.175781 C 94.867188 15.175781 91.910156 10.734375 81.847656 9.554688 C 71.78125 8.371094 66.765625 15.175781 66.480469 14.28125 C 66.195312 13.386719 58.496094 11.632812 51.097656 15.464844 C 43.703125 19.292969 42.234375 23.449219 42.234375 23.449219 C 42.234375 23.449219 33.941406 23.449219 29.214844 29.359375 C 24.488281 35.269531 24.371094 41.847656 24.371094 41.847656 C 16.230469 45.410156 11.277344 55.09375 13.183594 63.785156 C 13.304688 64.203125 13.363281 64.628906 13.355469 65.0625 C 13.316406 65.617188 13.066406 66.132812 12.859375 66.644531 C 12.605469 67.210938 12.382812 67.785156 12.1875 68.371094 C 11.992188 68.960938 11.828125 69.554688 11.6875 70.15625 C 11.550781 70.757812 11.441406 71.367188 11.363281 71.980469 C 11.285156 72.59375 11.238281 73.207031 11.21875 73.824219 C 11.199219 74.445312 11.210938 75.0625 11.25 75.679688 C 11.292969 76.292969 11.363281 76.90625 11.460938 77.519531 C 11.5625 78.128906 11.691406 78.730469 11.851562 79.328125 C 12.011719 79.925781 12.199219 80.515625 12.414062 81.09375 C 12.632812 81.671875 12.875 82.238281 13.144531 82.792969 C 13.417969 83.351562 13.714844 83.890625 14.039062 84.417969 C 14.363281 84.945312 14.710938 85.453125 15.085938 85.945312 C 15.457031 86.4375 15.855469 86.910156 16.273438 87.367188 C 16.691406 87.820312 17.132812 88.253906 17.59375 88.664062 C 18.054688 89.074219 18.535156 89.464844 19.035156 89.828125 C 19.53125 90.195312 20.046875 90.535156 20.582031 90.847656 C 21.113281 91.164062 21.65625 91.453125 22.21875 91.714844 C 22.21875 91.714844 28.757812 95.394531 36.953125 95.070312 C 44.0625 94.78125 45.914062 94.210938 45.914062 94.210938 L 45.988281 94.171875 C 46.675781 95.945312 47.875 97.832031 49.667969 99.851562 C 56.265625 107.308594 72.179688 106.621094 79.789062 104.429688 C 79.789062 104.429688 83.199219 103.417969 83.90625 103.570312 Z M 83.90625 103.570312 " fill-opacity="1" fill-rule="nonzero"/><path fill="#fd7537" d="M 83.90625 103.570312 L 91.261719 97.777344 C 91.261719 97.777344 101.308594 102.3125 110.59375 97.527344 C 119.875 92.742188 123.917969 87.234375 123.917969 87.234375 C 123.917969 87.234375 130.683594 90 135.71875 87.234375 C 135.71875 87.234375 142.75 87.996094 137.964844 95.03125 C 133.179688 102.066406 118.390625 106.582031 105.332031 105.820312 C 92.273438 105.058594 83.90625 103.570312 83.90625 103.570312 Z M 83.90625 103.570312 " fill-opacity="1" fill-rule="nonzero"/><path fill="#fd7537" d="M 12.859375 66.644531 C 12.859375 66.644531 12.742188 78.199219 27.992188 80.941406 C 43.242188 83.6875 49.953125 66.304688 49.953125 66.304688 L 55.023438 74.042969 L 51.480469 78.199219 C 51.480469 78.199219 42.328125 93.449219 59.714844 97.109375 C 77.097656 100.769531 90.214844 87.652344 90.214844 87.652344 C 90.214844 87.652344 95.09375 96.5 106.988281 94.667969 C 118.882812 92.839844 121.628906 80.027344 121.628906 80.027344 C 121.628906 80.027344 137.183594 88.261719 142.980469 74.234375 C 142.980469 74.234375 144.621094 83.460938 135.71875 87.234375 C 126.816406 91.007812 123.917969 87.234375 123.917969 87.234375 C 123.917969 87.234375 107.5625 103.035156 91.261719 97.777344 C 91.261719 97.777344 80.757812 111.40625 59.714844 105.34375 C 49.097656 102.292969 45.988281 94.171875 45.988281 94.171875 C 45.988281 94.171875 5.328125 100.214844 12.859375 66.644531 Z M 12.859375 66.644531 " fill-opacity="1" fill-rule="nonzero"/><g clip-path="url(#ba60d7a465)"><path fill="#3b505c" d="M 45.644531 93.257812 C 44.925781 93.445312 44.195312 93.566406 43.453125 93.621094 C 40.460938 93.964844 37.390625 94.210938 34.378906 94.058594 C 30.128906 93.8125 26.085938 92.550781 22.351562 90.683594 C 16.671875 87.863281 12.707031 82.105469 12.265625 75.757812 C 12.140625 74.019531 12.257812 72.296875 12.609375 70.59375 C 12.800781 69.773438 13.03125 68.972656 13.296875 68.171875 C 13.5625 67.371094 14.136719 66.476562 14.289062 65.578125 C 14.441406 64.683594 14.230469 63.976562 14.078125 63.15625 C 13.929688 62.464844 13.84375 61.765625 13.8125 61.0625 C 13.71875 59.6875 13.789062 58.320312 14.019531 56.960938 C 15.109375 50.804688 19.109375 45.257812 24.886719 42.703125 C 25.191406 42.570312 25.363281 42.167969 25.363281 41.847656 C 25.390625 40.84375 25.53125 39.859375 25.78125 38.890625 C 26.332031 36.433594 27.265625 34.132812 28.585938 31.992188 C 29.9375 29.816406 31.636719 28.007812 33.863281 26.75 C 35.59375 25.789062 37.429688 25.125 39.375 24.765625 C 40.316406 24.558594 41.269531 24.449219 42.234375 24.441406 C 42.453125 24.4375 42.652344 24.371094 42.828125 24.234375 C 43.003906 24.101562 43.125 23.929688 43.1875 23.71875 C 43.261719 23.507812 43.054688 24.003906 43.167969 23.773438 L 43.398438 23.316406 C 43.691406 22.792969 44.027344 22.296875 44.40625 21.828125 C 46.046875 19.828125 48.164062 18.265625 50.410156 16.988281 C 53.308594 15.28125 56.433594 14.328125 59.789062 14.128906 C 61.023438 14.039062 62.246094 14.085938 63.46875 14.261719 C 63.882812 14.316406 64.289062 14.398438 64.691406 14.511719 L 65.183594 14.664062 L 65.453125 14.738281 C 65.625 14.816406 65.300781 14.679688 65.546875 14.796875 C 65.796875 14.910156 65.777344 15.023438 65.644531 14.816406 C 65.757812 15.023438 65.507812 14.511719 65.527344 14.566406 C 65.605469 15.042969 66.136719 15.347656 66.578125 15.367188 C 67.015625 15.386719 67.394531 15.121094 67.738281 14.871094 C 68.902344 14.050781 70.027344 13.195312 71.285156 12.507812 C 73.269531 11.417969 75.382812 10.753906 77.632812 10.507812 C 80.644531 10.203125 83.714844 10.660156 86.59375 11.5 C 88.707031 12.109375 90.785156 12.984375 92.558594 14.300781 L 92.65625 14.375 L 92.84375 14.527344 L 93.207031 14.851562 C 93.394531 15.023438 93.574219 15.199219 93.742188 15.386719 C 93.851562 15.492188 93.953125 15.605469 94.046875 15.730469 L 94.007812 15.671875 C 94.125 15.867188 94.285156 16.003906 94.492188 16.089844 C 94.703125 16.175781 94.914062 16.1875 95.132812 16.128906 C 97.628906 15.347656 100.222656 15.214844 102.871094 15.445312 C 107.332031 15.84375 111.601562 17.847656 114.460938 21.296875 C 115.210938 22.1875 115.910156 23.113281 116.558594 24.078125 C 117.1875 25.03125 117.855469 26.042969 118.101562 27.167969 C 118.160156 27.386719 118.277344 27.5625 118.453125 27.703125 C 118.628906 27.839844 118.832031 27.910156 119.054688 27.910156 L 119.683594 27.949219 L 120.144531 27.949219 C 120.410156 27.988281 119.933594 27.910156 120.199219 27.949219 L 121.152344 28.121094 C 122.917969 28.480469 124.570312 29.128906 126.109375 30.066406 C 128.28125 31.378906 129.863281 33.25 131.199219 35.382812 C 132.285156 37.15625 133.335938 39.042969 133.773438 41.101562 C 133.8125 41.273438 133.84375 41.445312 133.867188 41.617188 C 133.847656 41.386719 133.886719 41.730469 133.886719 41.808594 C 133.886719 41.882812 133.886719 42.226562 133.886719 42.417969 C 133.886719 42.609375 133.945312 42.226562 133.886719 42.550781 C 133.875 42.597656 133.863281 42.640625 133.847656 42.683594 C 133.789062 42.902344 133.800781 43.117188 133.886719 43.324219 C 133.96875 43.535156 134.109375 43.695312 134.304688 43.808594 C 136.398438 44.976562 138.113281 46.550781 139.453125 48.535156 C 140.730469 50.394531 141.46875 52.449219 141.664062 54.695312 C 141.894531 56.980469 141.929688 59.34375 141.550781 61.632812 C 141.4375 62.304688 141.28125 62.964844 141.074219 63.617188 C 140.996094 63.785156 140.941406 63.976562 140.863281 64.148438 C 140.789062 64.320312 140.976562 63.921875 140.882812 64.109375 C 140.789062 64.300781 140.691406 65.007812 141.035156 65.3125 L 141.167969 65.445312 L 141.300781 65.617188 L 141.359375 65.691406 C 141.511719 65.921875 141.644531 66.167969 141.777344 66.417969 C 141.957031 66.722656 142.097656 67.046875 142.199219 67.390625 C 143.171875 70.097656 143.132812 73.109375 142.808594 75.929688 C 142.484375 78.75 141.550781 81.554688 139.339844 83.632812 C 137.488281 85.367188 135.085938 86.394531 132.628906 86.929688 C 130.457031 87.40625 128.015625 87.5 125.9375 87.121094 C 125.367188 87.003906 124.851562 86.832031 124.355469 87.273438 L 124.03125 87.578125 L 122.257812 89.140625 C 117.570312 93.046875 111.945312 96.707031 105.828125 97.71875 C 103.957031 98.042969 102.015625 98.082031 100.128906 98.117188 C 98.707031 98.160156 97.289062 98.117188 95.875 97.984375 C 95.453125 97.964844 95.035156 97.914062 94.617188 97.832031 C 94.296875 97.78125 93.976562 97.714844 93.664062 97.625 L 93.035156 97.433594 C 92.808594 97.355469 93.015625 97.414062 93.054688 97.453125 C 93.007812 97.414062 92.957031 97.390625 92.902344 97.375 L 92.808594 97.316406 C 92.425781 97.050781 91.929688 97.203125 91.605469 97.46875 L 91.511719 97.546875 C 91.359375 97.679688 91.683594 97.414062 91.566406 97.507812 L 91.359375 97.660156 C 90.976562 97.945312 90.578125 98.234375 90.15625 98.5 C 88.804688 99.421875 87.394531 100.25 85.925781 100.976562 C 82.523438 102.671875 78.945312 103.808594 75.191406 104.390625 C 71.648438 104.9375 68.089844 105.066406 64.519531 104.773438 C 61.03125 104.503906 57.425781 103.78125 54.300781 102.140625 C 52.851562 101.410156 51.574219 100.453125 50.46875 99.261719 C 48.945312 97.585938 47.53125 95.640625 46.769531 93.488281 C 46.15625 91.839844 46.046875 90.164062 46.445312 88.453125 C 46.867188 86.679688 47.820312 85.078125 48.925781 83.632812 C 49.496094 82.867188 50.375 82.183594 50.679688 81.265625 C 50.546875 81.648438 50.640625 81.324219 50.699219 81.210938 L 50.90625 80.828125 C 51.097656 80.503906 51.308594 80.199219 51.515625 79.894531 C 53.40625 77.320312 56.53125 74.9375 59.3125 73.050781 C 62.898438 70.628906 66.75 68.496094 71 67.523438 C 75.25 66.550781 79.425781 66.894531 83.523438 68 C 84.722656 68.324219 85.925781 68.722656 87.105469 69.144531 C 88.289062 69.5625 88.824219 67.65625 87.640625 67.238281 C 83.140625 65.597656 78.339844 64.585938 73.554688 65.101562 C 69.113281 65.578125 64.957031 67.257812 61.144531 69.542969 C 57.332031 71.832031 53.785156 74.269531 50.945312 77.472656 C 50.25 78.21875 49.644531 79.03125 49.132812 79.914062 C 48.980469 80.199219 48.65625 80.636719 48.65625 80.980469 C 48.675781 80.5625 48.886719 80.65625 48.714844 80.773438 C 48.609375 80.859375 48.523438 80.960938 48.449219 81.078125 L 47.933594 81.667969 C 47.570312 82.125 47.210938 82.582031 46.867188 83.078125 C 46.273438 83.878906 45.773438 84.730469 45.359375 85.632812 C 44.558594 87.347656 44.101562 89.199219 44.234375 91.105469 C 44.367188 93.011719 45.226562 95.316406 46.371094 97.148438 C 47.515625 98.976562 48.980469 100.824219 50.714844 102.199219 C 53.652344 104.484375 57.292969 105.707031 60.933594 106.316406 C 64.804688 106.960938 68.695312 107.085938 72.601562 106.695312 C 79.691406 106.046875 86.707031 103.664062 92.445312 99.359375 L 93.015625 98.917969 L 91.816406 99.070312 C 92.425781 99.511719 93.339844 99.664062 94.046875 99.777344 C 96.90625 100.292969 99.878906 100.214844 102.777344 100.042969 C 104.703125 99.929688 106.609375 99.71875 108.476562 99.207031 C 110.210938 98.714844 111.890625 98.074219 113.507812 97.28125 C 116.425781 95.886719 119.152344 94.097656 121.726562 92.132812 C 123.144531 91.058594 124.496094 89.910156 125.785156 88.683594 L 124.8125 88.949219 C 129.941406 90.132812 135.925781 88.988281 140.042969 85.691406 C 141.242188 84.71875 142.226562 83.566406 143.003906 82.234375 C 143.777344 80.898438 144.292969 79.472656 144.542969 77.949219 C 145.097656 74.578125 145.304688 70.933594 144.351562 67.617188 C 143.988281 66.378906 143.4375 64.855469 142.445312 63.957031 L 142.597656 65.160156 C 142.960938 64.378906 143.214844 63.566406 143.359375 62.71875 C 143.8125 60.390625 143.941406 58.046875 143.742188 55.683594 C 143.570312 53.09375 143.035156 50.652344 141.683594 48.382812 C 140.667969 46.707031 139.410156 45.238281 137.910156 43.980469 C 137.101562 43.277344 136.230469 42.660156 135.296875 42.132812 L 135.753906 43.257812 C 136.003906 42.628906 135.886719 41.789062 135.792969 41.140625 C 135.488281 39.15625 134.574219 37.289062 133.601562 35.574219 C 132.132812 32.980469 130.398438 30.65625 127.957031 28.941406 C 126.238281 27.734375 124.355469 26.882812 122.316406 26.386719 C 121.25 26.09375 120.164062 25.933594 119.054688 25.910156 L 120.027344 26.652344 C 119.53125 24.382812 117.816406 22.324219 116.40625 20.554688 C 115.128906 18.917969 113.625 17.53125 111.886719 16.398438 C 107.769531 13.765625 102.699219 12.945312 97.898438 13.558594 C 96.78125 13.6875 95.679688 13.902344 94.597656 14.203125 L 95.722656 14.664062 C 94.273438 12.527344 91.566406 11.191406 89.242188 10.277344 C 83.90625 8.199219 77.632812 7.628906 72.257812 9.859375 C 70.566406 10.578125 68.984375 11.488281 67.511719 12.585938 L 66.367188 13.40625 C 66.175781 13.539062 66.308594 13.40625 66.386719 13.386719 C 66.460938 13.367188 67.035156 13.519531 67.359375 13.824219 L 67.433594 14.015625 L 67.320312 13.746094 C 67.265625 13.65625 67.203125 13.574219 67.128906 13.5 C 67.023438 13.382812 66.902344 13.28125 66.765625 13.195312 C 66.15625 12.792969 65.355469 12.605469 64.652344 12.453125 C 63.449219 12.210938 62.234375 12.097656 61.011719 12.109375 C 57.597656 12.089844 54.351562 12.8125 51.269531 14.28125 C 48.332031 15.671875 45.457031 17.597656 43.320312 20.058594 C 42.5 20.972656 41.699219 22.019531 41.261719 23.183594 L 42.234375 22.460938 C 39.277344 22.460938 36.210938 23.316406 33.597656 24.632812 C 28.585938 27.148438 25.441406 32.257812 24.066406 37.558594 C 23.703125 38.949219 23.398438 40.417969 23.378906 41.847656 L 23.875 40.988281 C 18.367188 43.429688 14.269531 48.535156 12.589844 54.292969 C 11.746094 57.207031 11.570312 60.164062 12.058594 63.15625 C 12.171875 63.84375 12.457031 64.585938 12.324219 65.273438 C 12.191406 65.960938 11.542969 67.140625 11.238281 68.074219 C 10.667969 69.835938 10.335938 71.640625 10.246094 73.488281 C 9.921875 80.410156 13.296875 87.023438 18.9375 90.96875 C 22.523438 93.488281 27.003906 95.03125 31.292969 95.699219 C 35.066406 96.289062 38.878906 96.058594 42.671875 95.699219 C 43.816406 95.582031 45.054688 95.507812 46.179688 95.164062 C 47.304688 94.820312 46.886719 92.875 45.644531 93.257812 Z M 45.644531 93.257812 " fill-opacity="1" fill-rule="nonzero"/></g><path fill="#3b505c" d="M 83.636719 104.542969 C 95.285156 106.660156 107.238281 108.753906 119.039062 106.542969 C 121.683594 106.054688 124.265625 105.324219 126.777344 104.351562 C 128.683594 103.609375 130.628906 102.769531 132.34375 101.664062 C 135.011719 99.929688 137.699219 97.699219 139.320312 94.917969 C 140.425781 93.011719 140.882812 90.476562 140.292969 88.300781 C 140.042969 87.386719 139.433594 86.28125 138.421875 86.015625 C 137.414062 85.746094 136.652344 87.597656 137.890625 87.9375 C 138.0625 87.976562 137.625 87.824219 137.792969 87.882812 L 137.910156 87.957031 L 137.964844 87.996094 C 137.640625 87.804688 137.910156 87.921875 137.929688 87.976562 C 137.945312 88.035156 138.042969 88.089844 138.082031 88.128906 C 138.117188 88.167969 138.082031 88.148438 138.117188 88.226562 C 138.253906 88.429688 138.34375 88.652344 138.386719 88.890625 C 138.804688 90.53125 138.441406 92.457031 137.605469 93.90625 C 136.15625 96.402344 133.734375 98.367188 131.371094 99.910156 C 127.769531 102.273438 123.363281 103.648438 119.152344 104.484375 C 113.964844 105.554688 108.628906 105.6875 103.367188 105.34375 C 96.90625 104.925781 90.539062 103.78125 84.171875 102.617188 C 82.914062 102.390625 82.378906 104.3125 83.636719 104.542969 Z M 83.636719 104.542969 " fill-opacity="1" fill-rule="nonzero"/><path fill="#3b505c" d="M 67.871094 56.125 C 74.222656 58.582031 81.617188 57.878906 87.414062 54.3125 L 86.210938 54.160156 C 86.917969 55.019531 87.8125 55.722656 88.6875 56.371094 C 90.667969 57.820312 92.863281 58.742188 95.285156 59.136719 C 97.140625 59.40625 98.992188 59.363281 100.832031 59.003906 C 102.070312 58.753906 101.558594 56.828125 100.296875 57.078125 C 98.6875 57.390625 97.074219 57.410156 95.460938 57.132812 C 93.84375 56.851562 92.332031 56.292969 90.917969 55.457031 C 89.679688 54.714844 88.574219 53.914062 87.621094 52.75 C 87.355469 52.425781 86.765625 52.386719 86.421875 52.597656 C 85.082031 53.410156 83.664062 54.058594 82.175781 54.550781 C 80.6875 55.039062 79.164062 55.351562 77.601562 55.492188 C 76.039062 55.632812 74.484375 55.597656 72.929688 55.382812 C 71.378906 55.164062 69.871094 54.777344 68.40625 54.21875 C 67.890625 54.027344 67.300781 54.425781 67.1875 54.902344 C 67.074219 55.378906 67.378906 55.933594 67.871094 56.125 Z M 67.871094 56.125 " fill-opacity="1" fill-rule="nonzero"/><path fill="#3b505c" d="M 59.140625 86.355469 C 60.488281 86.191406 61.835938 86.1875 63.183594 86.335938 C 64.53125 86.488281 65.84375 86.792969 67.117188 87.25 C 68.394531 87.710938 69.601562 88.308594 70.734375 89.050781 C 71.871094 89.792969 72.90625 90.652344 73.839844 91.636719 C 74.039062 91.824219 74.273438 91.917969 74.542969 91.917969 C 74.816406 91.917969 75.050781 91.824219 75.25 91.636719 C 75.667969 91.21875 75.59375 90.644531 75.25 90.226562 C 74.90625 89.808594 76.011719 88.511719 76.242188 88.1875 C 76.757812 87.484375 77.328125 86.828125 77.957031 86.222656 C 79.210938 85.007812 80.613281 84.003906 82.171875 83.210938 C 83.738281 82.398438 85.386719 81.820312 87.117188 81.476562 C 88.847656 81.132812 90.589844 81.039062 92.347656 81.191406 C 94.308594 81.363281 96.175781 81.871094 97.953125 82.714844 C 98.542969 83.003906 99.230469 82.773438 99.421875 82.125 C 101.289062 76.007812 106.96875 71.203125 113.355469 70.496094 C 113.890625 70.441406 114.347656 70.097656 114.347656 69.503906 C 114.347656 68.914062 113.890625 68.457031 113.355469 68.515625 C 106.074219 69.316406 99.652344 74.558594 97.496094 81.589844 L 98.964844 81 C 91.492188 77.378906 81.941406 79.226562 76.183594 85.175781 C 74.714844 86.699219 72.144531 89.484375 73.839844 91.636719 L 75.25 90.226562 C 71.171875 85.898438 65.050781 83.648438 59.140625 84.355469 C 58.609375 84.414062 58.152344 84.773438 58.152344 85.347656 C 58.152344 85.917969 58.609375 86.414062 59.140625 86.355469 Z M 59.140625 86.355469 " fill-opacity="1" fill-rule="nonzero"/><path fill="#3b505c" d="M 110.402344 37.15625 C 109.335938 36.871094 108.648438 37.785156 108.667969 38.777344 C 108.6875 39.769531 109.390625 40.777344 109.90625 41.558594 C 111.027344 43.289062 112.398438 44.789062 114.023438 46.058594 C 117.703125 48.996094 122.164062 50.632812 126.585938 52.140625 L 125.878906 50.902344 C 125.730469 51.753906 125.640625 52.613281 125.609375 53.476562 C 125.578125 54.34375 125.609375 55.207031 125.695312 56.070312 C 125.785156 56.929688 125.933594 57.78125 126.136719 58.621094 C 126.34375 59.464844 126.605469 60.285156 126.925781 61.089844 C 127.246094 61.894531 127.621094 62.675781 128.046875 63.429688 C 128.476562 64.179688 128.953125 64.902344 129.480469 65.589844 C 130.007812 66.277344 130.578125 66.921875 131.195312 67.53125 C 131.8125 68.140625 132.46875 68.703125 133.164062 69.21875 C 133.601562 69.542969 134.269531 69.296875 134.515625 68.859375 C 134.765625 68.417969 134.59375 67.828125 134.171875 67.503906 C 129.292969 63.902344 126.71875 57.402344 127.804688 51.433594 C 127.867188 51.167969 127.832031 50.917969 127.695312 50.683594 C 127.558594 50.449219 127.359375 50.292969 127.101562 50.214844 C 123.460938 48.976562 119.78125 47.660156 116.578125 45.488281 C 115.199219 44.558594 113.960938 43.472656 112.859375 42.226562 C 112.320312 41.601562 111.839844 40.933594 111.410156 40.226562 C 111.203125 39.882812 111.03125 39.539062 110.859375 39.195312 C 110.6875 38.851562 110.746094 38.890625 110.667969 38.777344 C 110.59375 38.664062 111.050781 38.644531 110.441406 38.949219 L 109.945312 39.082031 L 109.867188 39.082031 C 111.105469 39.40625 111.640625 37.5 110.402344 37.175781 Z M 110.402344 37.15625 " fill-opacity="1" fill-rule="nonzero"/><path fill="#3b505c" d="M 47.648438 65.179688 C 51.097656 67.429688 52.699219 71.507812 54.050781 75.222656 C 54.132812 75.484375 54.289062 75.679688 54.523438 75.8125 C 54.761719 75.945312 55.011719 75.980469 55.273438 75.910156 C 55.75 75.777344 56.148438 75.207031 55.957031 74.691406 C 54.433594 70.457031 52.566406 66.015625 48.65625 63.460938 C 47.570312 62.757812 46.578125 64.472656 47.648438 65.179688 Z M 47.648438 65.179688 " fill-opacity="1" fill-rule="nonzero"/><path fill="#3b505c" d="M 54.242188 33.304688 C 53.726562 41.234375 46.160156 46.117188 39.296875 48.269531 C 38.46875 48.539062 37.621094 48.746094 36.761719 48.898438 C 36.113281 48.996094 35.199219 49.128906 34.609375 48.878906 C 34.019531 48.632812 32.816406 49.089844 33.140625 50.003906 C 33.464844 50.917969 34.113281 52.332031 34.378906 53.570312 C 34.730469 55.109375 34.636719 56.621094 34.09375 58.105469 C 33.484375 59.820312 32.398438 61.59375 30.988281 62.777344 C 30.035156 63.558594 28.871094 63.976562 27.746094 64.398438 C 26.125 65.007812 24.238281 64.816406 22.714844 64.035156 C 21.570312 63.445312 20.558594 65.160156 21.703125 65.75 C 23.378906 66.609375 25.476562 66.988281 27.347656 66.609375 C 28.070312 66.476562 28.792969 66.132812 29.460938 65.863281 C 30.199219 65.589844 30.898438 65.242188 31.558594 64.816406 C 33.234375 63.691406 34.476562 61.976562 35.351562 60.164062 C 36.230469 58.355469 36.761719 56.351562 36.515625 54.332031 C 36.324219 52.617188 35.65625 51.070312 35.066406 49.472656 L 33.597656 50.59375 C 35.238281 51.300781 37.164062 50.917969 38.820312 50.480469 C 40.792969 49.957031 42.691406 49.246094 44.519531 48.347656 C 48.371094 46.515625 51.898438 43.808594 54.109375 40.09375 C 55.355469 38 56.058594 35.734375 56.226562 33.304688 C 56.320312 32.027344 54.320312 32.027344 54.242188 33.304688 Z M 54.242188 33.304688 " fill-opacity="1" fill-rule="nonzero"/><path fill="#3b505c" d="M 53.214844 41.027344 C 56.054688 40.796875 59.046875 40.96875 61.660156 42.226562 C 64.269531 43.484375 65.964844 45.46875 67.339844 47.832031 C 67.988281 48.9375 69.703125 47.925781 69.054688 46.820312 C 67.53125 44.191406 65.433594 41.863281 62.667969 40.511719 C 59.90625 39.15625 56.433594 38.777344 53.214844 39.023438 C 51.9375 39.121094 51.9375 41.121094 53.214844 41.027344 Z M 53.214844 41.027344 " fill-opacity="1" fill-rule="nonzero"/><path fill="#3b505c" d="M 67.414062 45.164062 C 72.199219 40.359375 79.632812 38.089844 86.058594 40.398438 C 87.964844 41.082031 89.699219 42.285156 90.863281 43.980469 C 91.566406 45.046875 93.300781 44.039062 92.578125 42.988281 C 88.5 36.984375 79.882812 36.433594 73.628906 38.816406 C 70.730469 39.910156 68.191406 41.554688 66.003906 43.753906 C 65.109375 44.648438 66.5 46.058594 67.414062 45.164062 Z M 67.414062 45.164062 " fill-opacity="1" fill-rule="nonzero"/><path fill="#3b505c" d="M 88.441406 25.585938 C 89.660156 24.804688 90.917969 24.078125 92.3125 23.699219 C 93.753906 23.332031 95.175781 23.398438 96.582031 23.890625 C 99.441406 24.804688 101.671875 26.996094 103.785156 29.035156 C 104.53125 29.761719 105.617188 29.015625 105.445312 28.0625 L 105.445312 28.484375 C 105.199219 28.636719 105.140625 28.710938 105.253906 28.710938 L 105.292969 28.710938 C 105.332031 28.75 105.65625 28.730469 105.710938 28.75 C 106.019531 28.796875 106.324219 28.859375 106.628906 28.941406 C 107.296875 29.113281 107.925781 29.378906 108.515625 29.742188 C 109.707031 30.4375 110.636719 31.390625 111.296875 32.601562 C 111.90625 33.726562 113.625 32.714844 113.011719 31.589844 C 111.964844 29.699219 110.445312 28.324219 108.457031 27.472656 C 107.492188 27.042969 106.480469 26.796875 105.425781 26.730469 C 104.320312 26.691406 103.328125 27.433594 103.539062 28.617188 L 105.199219 27.644531 C 102.777344 25.300781 100.222656 22.898438 96.925781 21.925781 C 95.308594 21.421875 93.675781 21.363281 92.023438 21.753906 C 90.386719 22.136719 88.859375 22.972656 87.46875 23.890625 C 86.382812 24.574219 87.394531 26.308594 88.460938 25.605469 Z M 88.441406 25.585938 " fill-opacity="1" fill-rule="nonzero"/><path fill="#3b505c" d="M 52.261719 26.136719 C 56.148438 23.984375 60.570312 21.675781 65.167969 22.324219 C 65.699219 22.402344 66.234375 22.191406 66.40625 21.640625 C 66.578125 21.085938 66.234375 20.476562 65.699219 20.417969 C 60.496094 19.675781 55.691406 21.964844 51.25 24.402344 C 50.125 25.03125 51.136719 26.75 52.261719 26.136719 Z M 52.261719 26.136719 " fill-opacity="1" fill-rule="nonzero"/><path fill="#ffffff" d="M 134.269531 49.164062 C 136.613281 52.179688 137.585938 56.046875 137.183594 59.804688 C 137.089844 60.601562 137.929688 61.289062 138.671875 61.289062 C 139.414062 61.289062 140.082031 60.601562 140.160156 59.804688 C 140.652344 55.226562 139.207031 50.652344 136.382812 47.050781 C 135.886719 46.421875 134.78125 46.535156 134.269531 47.050781 C 133.753906 47.566406 133.773438 48.519531 134.269531 49.164062 Z M 134.269531 49.164062 " fill-opacity="1" fill-rule="nonzero"/><path fill="#ffffff" d="M 28.605469 40.988281 L 28.605469 41.027344 C 27.535156 41.941406 28.46875 43.484375 29.652344 43.582031 C 29.957031 43.589844 30.242188 43.519531 30.503906 43.367188 C 30.769531 43.21875 30.972656 43.007812 31.121094 42.742188 C 31.292969 42.4375 31.292969 42.152344 31.347656 41.828125 C 31.367188 41.6875 31.390625 41.546875 31.425781 41.40625 C 31.554688 40.703125 31.753906 40.015625 32.015625 39.347656 C 32.535156 38.09375 33.234375 36.949219 34.113281 35.917969 C 35.109375 34.765625 36.261719 33.792969 37.5625 33.003906 C 38.863281 32.210938 40.257812 31.640625 41.738281 31.285156 C 43.605469 30.828125 42.824219 27.949219 40.957031 28.40625 C 34.511719 29.96875 29.082031 35.289062 28.335938 42 L 28.546875 41.234375 L 28.488281 41.292969 L 29.386719 40.605469 L 29.652344 40.605469 L 30.699219 43.160156 L 30.738281 43.121094 C 31.347656 42.589844 31.273438 41.558594 30.738281 41.007812 C 30.207031 40.453125 29.234375 40.492188 28.621094 41.007812 Z M 28.605469 40.988281 " fill-opacity="1" fill-rule="nonzero"/><path fill="#ffffff" d="M 21.664062 53.988281 C 21.664062 53.796875 21.683594 53.589844 21.703125 53.398438 L 21.644531 53.796875 C 21.714844 53.324219 21.84375 52.867188 22.027344 52.425781 L 21.875 52.789062 C 22.050781 52.378906 22.269531 51.996094 22.542969 51.644531 L 22.3125 51.929688 C 22.59375 51.578125 22.910156 51.269531 23.265625 50.996094 L 22.960938 51.226562 L 23.628906 50.785156 C 23.800781 50.6875 23.945312 50.558594 24.066406 50.402344 C 24.183594 50.242188 24.269531 50.070312 24.320312 49.878906 C 24.371094 49.6875 24.382812 49.492188 24.355469 49.296875 C 24.328125 49.101562 24.261719 48.917969 24.164062 48.746094 C 24.0625 48.578125 23.933594 48.433594 23.773438 48.316406 C 23.617188 48.195312 23.441406 48.113281 23.25 48.0625 C 23.0625 48.011719 22.867188 48 22.671875 48.027344 C 22.476562 48.054688 22.292969 48.113281 22.121094 48.210938 C 21.609375 48.5 21.136719 48.851562 20.714844 49.261719 C 20.292969 49.675781 19.929688 50.132812 19.625 50.640625 C 19.324219 51.148438 19.089844 51.683594 18.929688 52.25 C 18.769531 52.820312 18.683594 53.398438 18.671875 53.988281 C 18.671875 54.769531 19.378906 55.53125 20.179688 55.496094 C 20.375 55.488281 20.5625 55.445312 20.742188 55.363281 C 20.921875 55.285156 21.082031 55.175781 21.21875 55.035156 C 21.359375 54.898438 21.464844 54.734375 21.542969 54.554688 C 21.621094 54.375 21.660156 54.183594 21.664062 53.988281 Z M 21.664062 53.988281 " fill-opacity="1" fill-rule="nonzero"/><g transform="matrix(1, 0, 0, 1, 165, 0)"><g clip-path="url(#44b99a1b5b)"><g fill="#f97336" fill-opacity="1"><g transform="translate(0.677909, 49.464993)"><g><path d="M 28.734375 -7.140625 L 13.65625 -7.140625 L 11.234375 0 L 0.921875 0 L 15.546875 -40.4375 L 26.953125 -40.4375 L 41.578125 0 L 31.15625 0 Z M 26.203125 -14.75 L 21.1875 -29.546875 L 16.234375 -14.75 Z M 26.203125 -14.75 "/></g></g></g><g fill="#f97336" fill-opacity="1"><g transform="translate(43.124891, 49.464993)"><g><path d="M 13.421875 -40.4375 L 13.421875 0 L 3.578125 0 L 3.578125 -40.4375 Z M 13.421875 -40.4375 "/></g></g></g><g fill="#f97336" fill-opacity="1"><g transform="translate(60.115208, 49.464993)"><g/></g></g><g fill="#f97336" fill-opacity="1"><g transform="translate(72.325197, 49.464993)"><g><path d="M 32.375 6.90625 L 27.1875 -0.0625 C 25.644531 0.25 24.144531 0.40625 22.6875 0.40625 C 18.882812 0.40625 15.398438 -0.472656 12.234375 -2.234375 C 9.066406 -4.003906 6.550781 -6.472656 4.6875 -9.640625 C 2.832031 -12.816406 1.90625 -16.378906 1.90625 -20.328125 C 1.90625 -24.285156 2.832031 -27.835938 4.6875 -30.984375 C 6.550781 -34.128906 9.066406 -36.582031 12.234375 -38.34375 C 15.398438 -40.113281 18.882812 -41 22.6875 -41 C 26.488281 -41 29.972656 -40.113281 33.140625 -38.34375 C 36.304688 -36.582031 38.800781 -34.128906 40.625 -30.984375 C 42.457031 -27.835938 43.375 -24.285156 43.375 -20.328125 C 43.375 -16.867188 42.671875 -13.707031 41.265625 -10.84375 C 39.859375 -7.988281 37.910156 -5.625 35.421875 -3.75 L 44.296875 6.90625 Z M 11.984375 -20.328125 C 11.984375 -16.753906 12.953125 -13.898438 14.890625 -11.765625 C 16.828125 -9.640625 19.425781 -8.578125 22.6875 -8.578125 C 25.914062 -8.578125 28.5 -9.648438 30.4375 -11.796875 C 32.375 -13.953125 33.34375 -16.796875 33.34375 -20.328125 C 33.34375 -23.898438 32.375 -26.75 30.4375 -28.875 C 28.5 -31.007812 25.914062 -32.078125 22.6875 -32.078125 C 19.425781 -32.078125 16.828125 -31.019531 14.890625 -28.90625 C 12.953125 -26.800781 11.984375 -23.941406 11.984375 -20.328125 Z M 11.984375 -20.328125 "/></g></g></g><g fill="#f97336" fill-opacity="1"><g transform="translate(117.709491, 49.464993)"><g><path d="M 35.3125 -32.140625 L 35.3125 0 L 25.453125 0 L 25.453125 -4.375 C 24.453125 -2.957031 23.097656 -1.816406 21.390625 -0.953125 C 19.679688 -0.0859375 17.789062 0.34375 15.71875 0.34375 C 13.257812 0.34375 11.085938 -0.203125 9.203125 -1.296875 C 7.328125 -2.390625 5.867188 -3.972656 4.828125 -6.046875 C 3.796875 -8.117188 3.28125 -10.554688 3.28125 -13.359375 L 3.28125 -32.140625 L 13.078125 -32.140625 L 13.078125 -14.6875 C 13.078125 -12.539062 13.632812 -10.867188 14.75 -9.671875 C 15.863281 -8.484375 17.359375 -7.890625 19.234375 -7.890625 C 21.148438 -7.890625 22.664062 -8.484375 23.78125 -9.671875 C 24.894531 -10.867188 25.453125 -12.539062 25.453125 -14.6875 L 25.453125 -32.140625 Z M 35.3125 -32.140625 "/></g></g></g><g fill="#f97336" fill-opacity="1"><g transform="translate(156.528031, 49.464993)"><g><path d="M 8.53125 -35.484375 C 6.800781 -35.484375 5.390625 -35.988281 4.296875 -37 C 3.203125 -38.019531 2.65625 -39.28125 2.65625 -40.78125 C 2.65625 -42.3125 3.203125 -43.582031 4.296875 -44.59375 C 5.390625 -45.613281 6.800781 -46.125 8.53125 -46.125 C 10.21875 -46.125 11.609375 -45.613281 12.703125 -44.59375 C 13.796875 -43.582031 14.34375 -42.3125 14.34375 -40.78125 C 14.34375 -39.28125 13.796875 -38.019531 12.703125 -37 C 11.609375 -35.988281 10.21875 -35.484375 8.53125 -35.484375 Z M 13.421875 -32.140625 L 13.421875 0 L 3.578125 0 L 3.578125 -32.140625 Z M 13.421875 -32.140625 "/></g></g></g><g fill="#f97336" fill-opacity="1"><g transform="translate(173.518349, 49.464993)"><g><path d="M 12.78125 -8.125 L 26.71875 -8.125 L 26.71875 0 L 1.78125 0 L 1.78125 -7.828125 L 15.140625 -24.015625 L 1.90625 -24.015625 L 1.90625 -32.140625 L 26.4375 -32.140625 L 26.4375 -24.296875 Z M 12.78125 -8.125 "/></g></g></g></g></g><g clip-path="url(#5b66716bba)"><g transform="matrix(1, 0, 0, 1, 165, 49)"><g clip-path="url(#c8ee4d1219)"><g fill="#3b505c" fill-opacity="1"><g transform="translate(1.168866, 58.985968)"><g><path d="M 26.765625 -19.78125 C 29.003906 -19.3125 30.800781 -18.207031 32.15625 -16.46875 C 33.507812 -14.726562 34.1875 -12.738281 34.1875 -10.5 C 34.1875 -7.269531 33.054688 -4.710938 30.796875 -2.828125 C 28.546875 -0.941406 25.410156 0 21.390625 0 L 3.40625 0 L 3.40625 -38.59375 L 20.78125 -38.59375 C 24.695312 -38.59375 27.765625 -37.691406 29.984375 -35.890625 C 32.203125 -34.097656 33.3125 -31.660156 33.3125 -28.578125 C 33.3125 -26.304688 32.710938 -24.421875 31.515625 -22.921875 C 30.328125 -21.421875 28.742188 -20.375 26.765625 -19.78125 Z M 12.8125 -22.984375 L 18.96875 -22.984375 C 20.5 -22.984375 21.675781 -23.320312 22.5 -24 C 23.332031 -24.675781 23.75 -25.671875 23.75 -26.984375 C 23.75 -28.304688 23.332031 -29.316406 22.5 -30.015625 C 21.675781 -30.710938 20.5 -31.0625 18.96875 -31.0625 L 12.8125 -31.0625 Z M 19.734375 -7.578125 C 21.304688 -7.578125 22.523438 -7.9375 23.390625 -8.65625 C 24.253906 -9.375 24.6875 -10.410156 24.6875 -11.765625 C 24.6875 -13.117188 24.234375 -14.179688 23.328125 -14.953125 C 22.429688 -15.722656 21.195312 -16.109375 19.625 -16.109375 L 12.8125 -16.109375 L 12.8125 -7.578125 Z M 19.734375 -7.578125 "/></g></g></g><g fill="#3b505c" fill-opacity="1"><g transform="translate(37.394559, 58.985968)"><g><path d="M 33.703125 -30.671875 L 33.703125 0 L 24.296875 0 L 24.296875 -4.171875 C 23.335938 -2.816406 22.039062 -1.726562 20.40625 -0.90625 C 18.78125 -0.0820312 16.976562 0.328125 15 0.328125 C 12.65625 0.328125 10.582031 -0.191406 8.78125 -1.234375 C 6.988281 -2.273438 5.597656 -3.785156 4.609375 -5.765625 C 3.628906 -7.742188 3.140625 -10.070312 3.140625 -12.75 L 3.140625 -30.671875 L 12.484375 -30.671875 L 12.484375 -14.015625 C 12.484375 -11.960938 13.015625 -10.367188 14.078125 -9.234375 C 15.140625 -8.097656 16.566406 -7.53125 18.359375 -7.53125 C 20.191406 -7.53125 21.640625 -8.097656 22.703125 -9.234375 C 23.765625 -10.367188 24.296875 -11.960938 24.296875 -14.015625 L 24.296875 -30.671875 Z M 33.703125 -30.671875 "/></g></g></g><g fill="#3b505c" fill-opacity="1"><g transform="translate(74.444801, 58.985968)"><g><path d="M 8.140625 -33.859375 C 6.484375 -33.859375 5.132812 -34.34375 4.09375 -35.3125 C 3.050781 -36.289062 2.53125 -37.492188 2.53125 -38.921875 C 2.53125 -40.378906 3.050781 -41.59375 4.09375 -42.5625 C 5.132812 -43.539062 6.484375 -44.03125 8.140625 -44.03125 C 9.742188 -44.03125 11.066406 -43.539062 12.109375 -42.5625 C 13.160156 -41.59375 13.6875 -40.378906 13.6875 -38.921875 C 13.6875 -37.492188 13.160156 -36.289062 12.109375 -35.3125 C 11.066406 -34.34375 9.742188 -33.859375 8.140625 -33.859375 Z M 12.8125 -30.671875 L 12.8125 0 L 3.40625 0 L 3.40625 -30.671875 Z M 12.8125 -30.671875 "/></g></g></g><g fill="#3b505c" fill-opacity="1"><g transform="translate(90.66115, 58.985968)"><g><path d="M 12.8125 -40.671875 L 12.8125 0 L 3.40625 0 L 3.40625 -40.671875 Z M 12.8125 -40.671875 "/></g></g></g><g fill="#3b505c" fill-opacity="1"><g transform="translate(106.8775, 58.985968)"><g><path d="M 1.546875 -15.390625 C 1.546875 -18.546875 2.140625 -21.3125 3.328125 -23.6875 C 4.515625 -26.070312 6.132812 -27.90625 8.1875 -29.1875 C 10.238281 -30.46875 12.53125 -31.109375 15.0625 -31.109375 C 17.070312 -31.109375 18.910156 -30.6875 20.578125 -29.84375 C 22.253906 -29 23.566406 -27.863281 24.515625 -26.4375 L 24.515625 -40.671875 L 33.921875 -40.671875 L 33.921875 0 L 24.515625 0 L 24.515625 -4.390625 C 23.640625 -2.929688 22.382812 -1.757812 20.75 -0.875 C 19.113281 0 17.21875 0.4375 15.0625 0.4375 C 12.53125 0.4375 10.238281 -0.210938 8.1875 -1.515625 C 6.132812 -2.816406 4.515625 -4.664062 3.328125 -7.0625 C 2.140625 -9.457031 1.546875 -12.234375 1.546875 -15.390625 Z M 24.515625 -15.34375 C 24.515625 -17.6875 23.863281 -19.535156 22.5625 -20.890625 C 21.257812 -22.242188 19.675781 -22.921875 17.8125 -22.921875 C 15.9375 -22.921875 14.347656 -22.25 13.046875 -20.90625 C 11.753906 -19.570312 11.109375 -17.734375 11.109375 -15.390625 C 11.109375 -13.046875 11.753906 -11.1875 13.046875 -9.8125 C 14.347656 -8.4375 15.9375 -7.75 17.8125 -7.75 C 19.675781 -7.75 21.257812 -8.425781 22.5625 -9.78125 C 23.863281 -11.132812 24.515625 -12.988281 24.515625 -15.34375 Z M 24.515625 -15.34375 "/></g></g></g><g fill="#3b505c" fill-opacity="1"><g transform="translate(144.202596, 58.985968)"><g><path d="M 32.328125 -15.828125 C 32.328125 -14.953125 32.269531 -14.035156 32.15625 -13.078125 L 10.890625 -13.078125 C 11.035156 -11.171875 11.644531 -9.710938 12.71875 -8.703125 C 13.800781 -7.703125 15.128906 -7.203125 16.703125 -7.203125 C 19.054688 -7.203125 20.691406 -8.191406 21.609375 -10.171875 L 31.609375 -10.171875 C 31.097656 -8.148438 30.171875 -6.332031 28.828125 -4.71875 C 27.492188 -3.113281 25.816406 -1.851562 23.796875 -0.9375 C 21.785156 -0.0195312 19.535156 0.4375 17.046875 0.4375 C 14.035156 0.4375 11.359375 -0.203125 9.015625 -1.484375 C 6.671875 -2.765625 4.835938 -4.59375 3.515625 -6.96875 C 2.203125 -9.351562 1.546875 -12.144531 1.546875 -15.34375 C 1.546875 -18.53125 2.191406 -21.3125 3.484375 -23.6875 C 4.785156 -26.070312 6.609375 -27.90625 8.953125 -29.1875 C 11.304688 -30.46875 14.003906 -31.109375 17.046875 -31.109375 C 20.015625 -31.109375 22.648438 -30.484375 24.953125 -29.234375 C 27.265625 -27.992188 29.070312 -26.21875 30.375 -23.90625 C 31.675781 -21.601562 32.328125 -18.910156 32.328125 -15.828125 Z M 22.703125 -18.296875 C 22.703125 -19.910156 22.148438 -21.191406 21.046875 -22.140625 C 19.953125 -23.097656 18.582031 -23.578125 16.9375 -23.578125 C 15.351562 -23.578125 14.019531 -23.117188 12.9375 -22.203125 C 11.863281 -21.285156 11.195312 -19.984375 10.9375 -18.296875 Z M 22.703125 -18.296875 "/></g></g></g><g fill="#3b505c" fill-opacity="1"><g transform="translate(178.06454, 58.985968)"><g><path d="M 12.8125 -25.5625 C 13.90625 -27.25 15.273438 -28.578125 16.921875 -29.546875 C 18.578125 -30.515625 20.410156 -31 22.421875 -31 L 22.421875 -21.046875 L 19.84375 -21.046875 C 17.5 -21.046875 15.738281 -20.539062 14.5625 -19.53125 C 13.394531 -18.53125 12.8125 -16.765625 12.8125 -14.234375 L 12.8125 0 L 3.40625 0 L 3.40625 -30.671875 L 12.8125 -30.671875 Z M 12.8125 -25.5625 "/></g></g></g></g></g></g><g transform="matrix(1, 0, 0, 1, 165, 0)"><g clip-path="url(#ff296b7c18)"><g fill="#f97336" fill-opacity="1"><g transform="translate(0.677909, 49.464993)"><g><path d="M 28.734375 -7.140625 L 13.65625 -7.140625 L 11.234375 0 L 0.921875 0 L 15.546875 -40.4375 L 26.953125 -40.4375 L 41.578125 0 L 31.15625 0 Z M 26.203125 -14.75 L 21.1875 -29.546875 L 16.234375 -14.75 Z M 26.203125 -14.75 "/></g></g></g><g fill="#f97336" fill-opacity="1"><g transform="translate(43.124891, 49.464993)"><g><path d="M 13.421875 -40.4375 L 13.421875 0 L 3.578125 0 L 3.578125 -40.4375 Z M 13.421875 -40.4375 "/></g></g></g><g fill="#f97336" fill-opacity="1"><g transform="translate(60.115208, 49.464993)"><g/></g></g><g fill="#f97336" fill-opacity="1"><g transform="translate(72.325197, 49.464993)"><g><path d="M 32.375 6.90625 L 27.1875 -0.0625 C 25.644531 0.25 24.144531 0.40625 22.6875 0.40625 C 18.882812 0.40625 15.398438 -0.472656 12.234375 -2.234375 C 9.066406 -4.003906 6.550781 -6.472656 4.6875 -9.640625 C 2.832031 -12.816406 1.90625 -16.378906 1.90625 -20.328125 C 1.90625 -24.285156 2.832031 -27.835938 4.6875 -30.984375 C 6.550781 -34.128906 9.066406 -36.582031 12.234375 -38.34375 C 15.398438 -40.113281 18.882812 -41 22.6875 -41 C 26.488281 -41 29.972656 -40.113281 33.140625 -38.34375 C 36.304688 -36.582031 38.800781 -34.128906 40.625 -30.984375 C 42.457031 -27.835938 43.375 -24.285156 43.375 -20.328125 C 43.375 -16.867188 42.671875 -13.707031 41.265625 -10.84375 C 39.859375 -7.988281 37.910156 -5.625 35.421875 -3.75 L 44.296875 6.90625 Z M 11.984375 -20.328125 C 11.984375 -16.753906 12.953125 -13.898438 14.890625 -11.765625 C 16.828125 -9.640625 19.425781 -8.578125 22.6875 -8.578125 C 25.914062 -8.578125 28.5 -9.648438 30.4375 -11.796875 C 32.375 -13.953125 33.34375 -16.796875 33.34375 -20.328125 C 33.34375 -23.898438 32.375 -26.75 30.4375 -28.875 C 28.5 -31.007812 25.914062 -32.078125 22.6875 -32.078125 C 19.425781 -32.078125 16.828125 -31.019531 14.890625 -28.90625 C 12.953125 -26.800781 11.984375 -23.941406 11.984375 -20.328125 Z M 11.984375 -20.328125 "/></g></g></g><g fill="#f97336" fill-opacity="1"><g transform="translate(117.709491, 49.464993)"><g><path d="M 35.3125 -32.140625 L 35.3125 0 L 25.453125 0 L 25.453125 -4.375 C 24.453125 -2.957031 23.097656 -1.816406 21.390625 -0.953125 C 19.679688 -0.0859375 17.789062 0.34375 15.71875 0.34375 C 13.257812 0.34375 11.085938 -0.203125 9.203125 -1.296875 C 7.328125 -2.390625 5.867188 -3.972656 4.828125 -6.046875 C 3.796875 -8.117188 3.28125 -10.554688 3.28125 -13.359375 L 3.28125 -32.140625 L 13.078125 -32.140625 L 13.078125 -14.6875 C 13.078125 -12.539062 13.632812 -10.867188 14.75 -9.671875 C 15.863281 -8.484375 17.359375 -7.890625 19.234375 -7.890625 C 21.148438 -7.890625 22.664062 -8.484375 23.78125 -9.671875 C 24.894531 -10.867188 25.453125 -12.539062 25.453125 -14.6875 L 25.453125 -32.140625 Z M 35.3125 -32.140625 "/></g></g></g><g fill="#f97336" fill-opacity="1"><g transform="translate(156.528031, 49.464993)"><g><path d="M 8.53125 -35.484375 C 6.800781 -35.484375 5.390625 -35.988281 4.296875 -37 C 3.203125 -38.019531 2.65625 -39.28125 2.65625 -40.78125 C 2.65625 -42.3125 3.203125 -43.582031 4.296875 -44.59375 C 5.390625 -45.613281 6.800781 -46.125 8.53125 -46.125 C 10.21875 -46.125 11.609375 -45.613281 12.703125 -44.59375 C 13.796875 -43.582031 14.34375 -42.3125 14.34375 -40.78125 C 14.34375 -39.28125 13.796875 -38.019531 12.703125 -37 C 11.609375 -35.988281 10.21875 -35.484375 8.53125 -35.484375 Z M 13.421875 -32.140625 L 13.421875 0 L 3.578125 0 L 3.578125 -32.140625 Z M 13.421875 -32.140625 "/></g></g></g><g fill="#f97336" fill-opacity="1"><g transform="translate(173.518349, 49.464993)"><g><path d="M 12.78125 -8.125 L 26.71875 -8.125 L 26.71875 0 L 1.78125 0 L 1.78125 -7.828125 L 15.140625 -24.015625 L 1.90625 -24.015625 L 1.90625 -32.140625 L 26.4375 -32.140625 L 26.4375 -24.296875 Z M 12.78125 -8.125 "/></g></g></g></g></g><g transform="matrix(1, 0, 0, 1, 165, 0)"><g clip-path="url(#c664f238b6)"><g fill="#fd7537" fill-opacity="1"><g transform="translate(0.677909, 49.464993)"><g><path d="M 28.734375 -7.140625 L 13.65625 -7.140625 L 11.234375 0 L 0.921875 0 L 15.546875 -40.4375 L 26.953125 -40.4375 L 41.578125 0 L 31.15625 0 Z M 26.203125 -14.75 L 21.1875 -29.546875 L 16.234375 -14.75 Z M 26.203125 -14.75 "/></g></g></g><g fill="#fd7537" fill-opacity="1"><g transform="translate(43.124891, 49.464993)"><g><path d="M 13.421875 -40.4375 L 13.421875 0 L 3.578125 0 L 3.578125 -40.4375 Z M 13.421875 -40.4375 "/></g></g></g><g fill="#fd7537" fill-opacity="1"><g transform="translate(60.115208, 49.464993)"><g/></g></g><g fill="#fd7537" fill-opacity="1"><g transform="translate(72.325197, 49.464993)"><g><path d="M 32.375 6.90625 L 27.1875 -0.0625 C 25.644531 0.25 24.144531 0.40625 22.6875 0.40625 C 18.882812 0.40625 15.398438 -0.472656 12.234375 -2.234375 C 9.066406 -4.003906 6.550781 -6.472656 4.6875 -9.640625 C 2.832031 -12.816406 1.90625 -16.378906 1.90625 -20.328125 C 1.90625 -24.285156 2.832031 -27.835938 4.6875 -30.984375 C 6.550781 -34.128906 9.066406 -36.582031 12.234375 -38.34375 C 15.398438 -40.113281 18.882812 -41 22.6875 -41 C 26.488281 -41 29.972656 -40.113281 33.140625 -38.34375 C 36.304688 -36.582031 38.800781 -34.128906 40.625 -30.984375 C 42.457031 -27.835938 43.375 -24.285156 43.375 -20.328125 C 43.375 -16.867188 42.671875 -13.707031 41.265625 -10.84375 C 39.859375 -7.988281 37.910156 -5.625 35.421875 -3.75 L 44.296875 6.90625 Z M 11.984375 -20.328125 C 11.984375 -16.753906 12.953125 -13.898438 14.890625 -11.765625 C 16.828125 -9.640625 19.425781 -8.578125 22.6875 -8.578125 C 25.914062 -8.578125 28.5 -9.648438 30.4375 -11.796875 C 32.375 -13.953125 33.34375 -16.796875 33.34375 -20.328125 C 33.34375 -23.898438 32.375 -26.75 30.4375 -28.875 C 28.5 -31.007812 25.914062 -32.078125 22.6875 -32.078125 C 19.425781 -32.078125 16.828125 -31.019531 14.890625 -28.90625 C 12.953125 -26.800781 11.984375 -23.941406 11.984375 -20.328125 Z M 11.984375 -20.328125 "/></g></g></g><g fill="#fd7537" fill-opacity="1"><g transform="translate(117.709491, 49.464993)"><g><path d="M 35.3125 -32.140625 L 35.3125 0 L 25.453125 0 L 25.453125 -4.375 C 24.453125 -2.957031 23.097656 -1.816406 21.390625 -0.953125 C 19.679688 -0.0859375 17.789062 0.34375 15.71875 0.34375 C 13.257812 0.34375 11.085938 -0.203125 9.203125 -1.296875 C 7.328125 -2.390625 5.867188 -3.972656 4.828125 -6.046875 C 3.796875 -8.117188 3.28125 -10.554688 3.28125 -13.359375 L 3.28125 -32.140625 L 13.078125 -32.140625 L 13.078125 -14.6875 C 13.078125 -12.539062 13.632812 -10.867188 14.75 -9.671875 C 15.863281 -8.484375 17.359375 -7.890625 19.234375 -7.890625 C 21.148438 -7.890625 22.664062 -8.484375 23.78125 -9.671875 C 24.894531 -10.867188 25.453125 -12.539062 25.453125 -14.6875 L 25.453125 -32.140625 Z M 35.3125 -32.140625 "/></g></g></g><g fill="#fd7537" fill-opacity="1"><g transform="translate(156.528031, 49.464993)"><g><path d="M 8.53125 -35.484375 C 6.800781 -35.484375 5.390625 -35.988281 4.296875 -37 C 3.203125 -38.019531 2.65625 -39.28125 2.65625 -40.78125 C 2.65625 -42.3125 3.203125 -43.582031 4.296875 -44.59375 C 5.390625 -45.613281 6.800781 -46.125 8.53125 -46.125 C 10.21875 -46.125 11.609375 -45.613281 12.703125 -44.59375 C 13.796875 -43.582031 14.34375 -42.3125 14.34375 -40.78125 C 14.34375 -39.28125 13.796875 -38.019531 12.703125 -37 C 11.609375 -35.988281 10.21875 -35.484375 8.53125 -35.484375 Z M 13.421875 -32.140625 L 13.421875 0 L 3.578125 0 L 3.578125 -32.140625 Z M 13.421875 -32.140625 "/></g></g></g><g fill="#fd7537" fill-opacity="1"><g transform="translate(173.518349, 49.464993)"><g><path d="M 12.78125 -8.125 L 26.71875 -8.125 L 26.71875 0 L 1.78125 0 L 1.78125 -7.828125 L 15.140625 -24.015625 L 1.90625 -24.015625 L 1.90625 -32.140625 L 26.4375 -32.140625 L 26.4375 -24.296875 Z M 12.78125 -8.125 "/></g></g></g></g></g></svg>